<?xml version="1.0" encoding="utf-8"?>
<!-- Generator: Adobe Illustrator 23.0.3, SVG Export Plug-In . SVG Version: 6.00 Build 0)  -->
<svg version="1.1" id="圖層_1" xmlns="http://www.w3.org/2000/svg" xmlns:xlink="http://www.w3.org/1999/xlink" x="0px" y="0px"
	 viewBox="0 0 69 69" style="enable-background:new 0 0 69 69;" xml:space="preserve">
<style type="text/css">
	.st0{fill:#FFFFFF;}
</style>
<g>
	<g id="XMLID_14_">
		<path id="XMLID_18_" class="st0" d="M34.5,69C15.5,69,0,53.5,0,34.5S15.5,0,34.5,0S69,15.5,69,34.5S53.6,69,34.5,69z M34.5,1.9
			C16.6,1.9,2,16.5,2,34.4s14.6,32.5,32.5,32.5S67,52.3,67,34.4C67.1,16.5,52.5,1.9,34.5,1.9z"/>
	</g>
	<g id="XMLID_15_">
		<path id="XMLID_17_" class="st0" d="M21.8,41.8c-0.3,0-0.5-0.1-0.7-0.3c-0.4-0.4-0.4-1,0-1.4l12.7-12.7c0.4-0.4,1-0.4,1.4,0
			L47.8,40c0.4,0.4,0.4,1,0,1.4s-1,0.4-1.4,0L34.5,29.5L22.6,41.4C22.3,41.7,22.1,41.8,21.8,41.8z"/>
	</g>
</g>
</svg>
