<?xml version="1.0" encoding="utf-8"?>
<!-- Generator: Adobe Illustrator 23.0.3, SVG Export Plug-In . SVG Version: 6.00 Build 0)  -->
<svg version="1.1" id="圖層_1" xmlns="http://www.w3.org/2000/svg" xmlns:xlink="http://www.w3.org/1999/xlink" x="0px" y="0px"
	 viewBox="0 0 142.2 142.1" style="enable-background:new 0 0 142.2 142.1;" xml:space="preserve">
<style type="text/css">
	.st0{fill:#FFFFFF;}
</style>
<path class="st0" d="M141.7,41.8c-0.5-11.4-3.1-21.5-11.5-29.8c-8.3-8.3-18.4-10.9-29.8-11.5c-11.7-0.7-46.9-0.7-58.6,0
	C30.5,1,20.4,3.6,12,11.9C3.7,20.2,1.1,30.3,0.5,41.7c-0.7,11.7-0.7,46.9,0,58.6C1,111.7,3.6,121.8,12,130.1
	c8.3,8.3,18.4,10.9,29.8,11.5c11.7,0.7,46.9,0.7,58.6,0c11.4-0.5,21.5-3.1,29.8-11.5c8.3-8.3,10.9-18.4,11.5-29.8
	C142.3,88.6,142.3,53.5,141.7,41.8z M126.5,113c-2.5,6.2-7.3,11-13.5,13.5c-9.3,3.7-31.5,2.9-41.9,2.9c-10.3,0-32.5,0.8-41.9-2.9
	c-6.2-2.5-11-7.3-13.5-13.5c-3.7-9.3-2.9-31.5-2.9-41.9S12,38.6,15.7,29.2c2.5-6.2,7.3-11,13.5-13.5c9.3-3.7,31.5-2.9,41.9-2.9
	c10.3,0,32.5-0.8,41.9,2.9c6.2,2.5,11,7.3,13.5,13.5c3.7,9.3,2.9,31.5,2.9,41.9S130.2,103.6,126.5,113z"/>
<path class="st0" d="M112,78.3l2.8-18.4H97.1v-12c0-5,2.5-10,10.4-10h8V22.2c0,0-7.3-1.2-14.3-1.2c-14.6,0-24.1,8.8-24.1,24.8v14.1
	H60.9v18.4h16.2v44.6h20V78.3H112L112,78.3z"/>
</svg>
