<?xml version="1.0" encoding="utf-8"?>
<!-- Generator: Adobe Illustrator 24.0.1, SVG Export Plug-In . SVG Version: 6.00 Build 0)  -->
<svg version="1.1" id="圖層_1" xmlns="http://www.w3.org/2000/svg" xmlns:xlink="http://www.w3.org/1999/xlink" x="0px" y="0px"
	 viewBox="0 0 274.9 61.8" style="enable-background:new 0 0 274.9 61.8;" xml:space="preserve">
<style type="text/css">
	.st0{fill:#FFFFFF;}
</style>
<g id="XMLID_1821_">
	<polygon id="XMLID_1835_" class="st0" points="36.9,24.9 0,0 0,11 0,12.5 0,54.9 8.9,61.8 8.9,18.8 36.9,37.3 	"/>
	<polygon id="XMLID_1834_" class="st0" points="38.6,24.9 75.5,0 75.5,11 75.5,12.5 75.5,54.9 66.8,61.8 66.8,18.8 38.6,37.3 	"/>
	<polygon id="XMLID_1824_" class="st0" points="62.5,54.1 40.1,38.6 47.5,33.5 62.5,43.4 	"/>
	<polygon id="XMLID_1823_" class="st0" points="10.5,56.8 36.2,38.6 28.7,33.5 12.4,44.6 12.4,22.7 10.5,21.4 	"/>
	<polygon id="XMLID_1822_" class="st0" points="38,41.7 10.5,60.8 10.5,58.9 38,39.5 63.7,57.1 63.7,22.7 65.4,21.4 65.4,60.6 	"/>
</g>
<g id="XMLID_1694_">
	<g>
		<path id="XMLID_326_" class="st0" d="M94.4,50.5l-3.7-10.5h2l2.6,8.4l0,0l2.6-8.4h2l-3.7,10.5H94.4z"/>
		<path id="XMLID_324_" class="st0" d="M102.8,50.5V39.9h6.7v1.6h-4.8v3.1h4.4v1.5h-4.4v4.3C104.7,50.5,102.8,50.5,102.8,50.5z"/>
		<path id="XMLID_322_" class="st0" d="M115.1,45.2L115.1,45.2l-3.4-5.3h2.3l2.4,3.9l0,0l2.5-3.9h2.1l-3.5,5.3l0,0l3.4,5.2h-2.1
			l-2.5-3.9l0,0l-2.5,3.9h-2L115.1,45.2z"/>
		<path id="XMLID_319_" class="st0" d="M144.2,47.7h-3.9l-0.9,2.8h-1.9l3.8-10.5h2.1l3.8,10.5h-2L144.2,47.7z M140.8,46.2h3
			l-1.5-4.5l0,0L140.8,46.2z"/>
		<path id="XMLID_317_" class="st0" d="M149.7,50.5V39.9h1.6l5.2,7.3h0.1v-7.3h1.8v10.5h-1.6l-5.2-7.4h-0.1v7.4h-1.8V50.5z"/>
		<path id="XMLID_315_" class="st0" d="M161.8,50.5V39.9h1.9v10.5h-1.9V50.5z"/>
		<path id="XMLID_313_" class="st0" d="M177.9,50.5h-1.6v-7.4l0,0l-3,7.4H172l-3-7.4l0,0v7.4h-1.6V39.9h2.1l3.3,7.9l0,0l3.3-7.9h2.1
			v10.6C178.1,50.5,177.9,50.5,177.9,50.5z"/>
		<path id="XMLID_310_" class="st0" d="M187.1,47.7h-3.9l-0.9,2.8h-1.9l3.8-10.5h2.1l3.8,10.5h-2L187.1,47.7z M183.7,46.2h3
			l-1.5-4.5l0,0L183.7,46.2z"/>
		<path id="XMLID_308_" class="st0" d="M193.8,50.5v-8.9h-3.1v-1.6h8.3v1.6h-3.1v8.9H193.8z"/>
		<path id="XMLID_306_" class="st0" d="M201.6,50.5V39.9h1.9v10.5h-1.9V50.5z"/>
		<path id="XMLID_303_" class="st0" d="M216.4,45.2c0,3.4-1.9,5.4-5,5.4c-3,0-5-2.1-5-5.4c0-3.3,1.9-5.4,5-5.4
			S216.4,41.8,216.4,45.2z M208.4,45.2c0,2.4,1.1,3.8,3,3.8s3-1.5,3-3.8c0-2.4-1.1-3.8-3-3.8C209.6,41.3,208.4,42.8,208.4,45.2z"/>
		<path id="XMLID_301_" class="st0" d="M219.5,50.5V39.9h1.6l5.2,7.3h0.1v-7.3h1.8v10.5h-1.6l-5.2-7.4h-0.1v7.4h-1.8V50.5z"/>
		<path id="XMLID_299_" class="st0" d="M252.6,50.5h-6.7V39.9h1.9v8.9h4.8V50.5z"/>
		<path id="XMLID_296_" class="st0" d="M261.4,47.7h-3.9l-0.9,2.8h-1.9l3.8-10.5h2.1l3.8,10.5h-2L261.4,47.7z M258,46.2h3l-1.5-4.5
			l0,0L258,46.2z"/>
		<path id="XMLID_292_" class="st0" d="M266.8,50.5V39.9h4.4c1.9,0,3.1,1,3.1,2.6c0,1.1-0.9,2.1-1.9,2.3l0,0
			c1.4,0.1,2.4,1.1,2.4,2.5c0,1.9-1.4,3-3.7,3h-4.4V50.5z M268.7,44.3h1.8c1.3,0,2-0.5,2-1.5c0-0.9-0.6-1.4-1.8-1.4h-2.1v2.9H268.7
			L268.7,44.3z M271,49c1.4,0,2.1-0.6,2.1-1.6c0-1-0.8-1.6-2.1-1.6h-2.1V49H271L271,49z"/>
	</g>
</g>
<g id="XMLID_1652_">
	<rect id="XMLID_1669_" x="128.7" y="40.8" class="st0" width="1.3" height="8.4"/>
</g>
<g id="XMLID_1541_">
	<rect id="XMLID_1651_" x="236.3" y="40.8" class="st0" width="1.3" height="8.4"/>
</g>
<g id="XMLID_1188_">
	<polygon id="XMLID_1193_" class="st0" points="36.9,24.9 0,0 0,11 0,12.5 0,54.9 8.9,61.8 8.9,18.8 36.9,37.3 	"/>
	<polygon id="XMLID_1192_" class="st0" points="38.6,24.9 75.5,0 75.5,11 75.5,12.5 75.5,54.9 66.8,61.8 66.8,18.8 38.6,37.3 	"/>
	<polygon id="XMLID_1191_" class="st0" points="62.5,54.1 40.1,38.6 47.5,33.5 62.5,43.4 	"/>
	<polygon id="XMLID_1190_" class="st0" points="10.5,56.8 36.2,38.6 28.7,33.5 12.4,44.6 12.4,22.7 10.5,21.4 	"/>
	<polygon id="XMLID_1189_" class="st0" points="38,41.7 10.5,60.8 10.5,58.9 38,39.5 63.7,57.1 63.7,22.7 65.4,21.4 65.4,60.6 	"/>
</g>
<g id="XMLID_15_">
	<g>
		<path id="XMLID_290_" class="st0" d="M94.4,50.5l-3.7-10.5h2l2.6,8.4l0,0l2.6-8.4h2l-3.7,10.5H94.4z"/>
		<path id="XMLID_288_" class="st0" d="M102.8,50.5V39.9h6.7v1.6h-4.8v3.1h4.4v1.5h-4.4v4.3C104.7,50.5,102.8,50.5,102.8,50.5z"/>
		<path id="XMLID_286_" class="st0" d="M115.1,45.2L115.1,45.2l-3.4-5.3h2.3l2.4,3.9l0,0l2.5-3.9h2.1l-3.5,5.3l0,0l3.4,5.2h-2.1
			l-2.5-3.9l0,0l-2.5,3.9h-2L115.1,45.2z"/>
		<path id="XMLID_283_" class="st0" d="M144.2,47.7h-3.9l-0.9,2.8h-1.9l3.8-10.5h2.1l3.8,10.5h-2L144.2,47.7z M140.8,46.2h3
			l-1.5-4.5l0,0L140.8,46.2z"/>
		<path id="XMLID_281_" class="st0" d="M149.7,50.5V39.9h1.6l5.2,7.3h0.1v-7.3h1.8v10.5h-1.6l-5.2-7.4h-0.1v7.4h-1.8V50.5z"/>
		<path id="XMLID_279_" class="st0" d="M161.8,50.5V39.9h1.9v10.5h-1.9V50.5z"/>
		<path id="XMLID_277_" class="st0" d="M177.9,50.5h-1.6v-7.4l0,0l-3,7.4H172l-3-7.4l0,0v7.4h-1.6V39.9h2.1l3.3,7.9l0,0l3.3-7.9h2.1
			v10.6C178.1,50.5,177.9,50.5,177.9,50.5z"/>
		<path id="XMLID_274_" class="st0" d="M187.1,47.7h-3.9l-0.9,2.8h-1.9l3.8-10.5h2.1l3.8,10.5h-2L187.1,47.7z M183.7,46.2h3
			l-1.5-4.5l0,0L183.7,46.2z"/>
		<path id="XMLID_272_" class="st0" d="M193.8,50.5v-8.9h-3.1v-1.6h8.3v1.6h-3.1v8.9H193.8z"/>
		<path id="XMLID_270_" class="st0" d="M201.6,50.5V39.9h1.9v10.5h-1.9V50.5z"/>
		<path id="XMLID_267_" class="st0" d="M216.4,45.2c0,3.4-1.9,5.4-5,5.4c-3,0-5-2.1-5-5.4c0-3.3,1.9-5.4,5-5.4
			S216.4,41.8,216.4,45.2z M208.4,45.2c0,2.4,1.1,3.8,3,3.8s3-1.5,3-3.8c0-2.4-1.1-3.8-3-3.8C209.6,41.3,208.4,42.8,208.4,45.2z"/>
		<path id="XMLID_265_" class="st0" d="M219.5,50.5V39.9h1.6l5.2,7.3h0.1v-7.3h1.8v10.5h-1.6l-5.2-7.4h-0.1v7.4h-1.8V50.5z"/>
		<path id="XMLID_263_" class="st0" d="M252.6,50.5h-6.7V39.9h1.9v8.9h4.8V50.5z"/>
		<path id="XMLID_260_" class="st0" d="M261.4,47.7h-3.9l-0.9,2.8h-1.9l3.8-10.5h2.1l3.8,10.5h-2L261.4,47.7z M258,46.2h3l-1.5-4.5
			l0,0L258,46.2z"/>
		<path id="XMLID_256_" class="st0" d="M266.8,50.5V39.9h4.4c1.9,0,3.1,1,3.1,2.6c0,1.1-0.9,2.1-1.9,2.3l0,0
			c1.4,0.1,2.4,1.1,2.4,2.5c0,1.9-1.4,3-3.7,3h-4.4V50.5z M268.7,44.3h1.8c1.3,0,2-0.5,2-1.5c0-0.9-0.6-1.4-1.8-1.4h-2.1v2.9H268.7
			L268.7,44.3z M271,49c1.4,0,2.1-0.6,2.1-1.6c0-1-0.8-1.6-2.1-1.6h-2.1V49H271L271,49z"/>
	</g>
</g>
<g id="XMLID_1180_">
	<rect id="XMLID_1181_" x="128.7" y="40.8" class="st0" width="1.3" height="8.4"/>
</g>
<g id="XMLID_1178_">
	<rect id="XMLID_1179_" x="236.3" y="40.8" class="st0" width="1.3" height="8.4"/>
</g>
<polygon id="XMLID_1543_" class="st0" points="90.3,9.2 90.3,29.5 93.3,29.5 93.3,16.2 100.3,23.2 107.3,16.2 107.3,29.5 
	110.3,29.5 110.3,9.2 100.3,19.1 "/>
<path id="XMLID_1546_" class="st0" d="M123.8,9.5c-5.5,0-10,4.5-10,10s4.5,10,10,10s10-4.5,10-10S129.3,9.5,123.8,9.5z M130.9,19.5
	c0,3.9-3.2,7-7,7s-7-3.2-7-7c0-3.9,3.2-7,7-7S130.9,15.6,130.9,19.5z"/>
<path id="XMLID_1549_" class="st0" d="M146.2,9.4c-5.5,0-10,4.5-10,10s4.5,10,10,10s10-4.5,10-10C156.1,13.9,151.7,9.4,146.2,9.4z
	 M153.2,19.4c0,3.9-3.2,7-7,7s-7-3.2-7-7c0-3.9,3.2-7,7-7S153.2,15.5,153.2,19.4z"/>
<rect id="XMLID_1550_" x="226.4" y="9.5" class="st0" width="2.5" height="19.9"/>
<polygon id="XMLID_1551_" class="st0" points="218.4,17.8 206.2,17.8 206.2,9.5 203.3,9.5 203.3,29.5 206.2,29.5 206.2,20.7 
	217.4,20.7 218.4,18.9 218.4,29.5 221.3,29.5 221.3,9.5 218.4,9.5 "/>
<polygon id="XMLID_1552_" class="st0" points="174.9,23.1 159.9,9.2 159.9,29.5 162.8,29.5 162.7,15.9 177.8,29.8 177.8,9.5 
	174.9,9.5 "/>
<polygon id="XMLID_1553_" class="st0" points="249.2,23.1 234.1,9.2 234.1,29.5 237,29.5 237,15.9 252.1,29.8 252.1,9.5 249.2,9.5 
	"/>
<g id="XMLID_914_">
	<polygon id="XMLID_1554_" class="st0" points="271.1,20.7 272.6,17.8 262.1,17.8 260.7,20.7 	"/>
	<polygon id="XMLID_1555_" class="st0" points="259.7,12.4 273.5,12.4 275,9.5 256.8,9.5 256.8,29.4 273.5,29.4 274.9,26.5 
		259.7,26.5 	"/>
</g>
<path id="XMLID_1556_" class="st0" d="M187.7,12.4h11.1l1.5-2.9h-12.6c-3.1,0-5.6,2.5-5.6,5.6s2.5,5.6,5.6,5.6h6.6
	c1.6,0,2.9,1.3,2.9,2.9s-1.3,2.9-2.9,2.9h-10.9l-1.4,2.9h12.3c3.2,0,5.8-2.6,5.8-5.8s-2.6-5.8-5.8-5.8h-6.6c-1.5,0-2.7-1.2-2.7-2.7
	C185,13.6,186.2,12.4,187.7,12.4z"/>
</svg>
