<?xml version="1.0" encoding="utf-8"?>
<!-- Generator: Adobe Illustrator 23.0.3, SVG Export Plug-In . SVG Version: 6.00 Build 0)  -->
<svg version="1.1" xmlns="http://www.w3.org/2000/svg" xmlns:xlink="http://www.w3.org/1999/xlink" x="0px" y="0px"
	 viewBox="0 0 17.3 30.6" style="enable-background:new 0 0 17.3 30.6;" xml:space="preserve">
<style type="text/css">
	.st0{fill:#FFFFFF;}
</style>
<g id="circle">
	<g>
		<path class="st0" d="M8.5,30.6c-4.7,0-8.5-3.8-8.5-8.5V8.5C0,3.8,3.8,0,8.5,0S17,3.8,17,8.5v13.6C17,26.9,13.1,30.6,8.5,30.6z
			 M8.5,0.8c-4.3,0-7.7,3.5-7.7,7.7v13.6c0,4.3,3.5,7.7,7.7,7.7s7.7-3.5,7.7-7.7V8.5C16.2,4.3,12.7,0.8,8.5,0.8z"/>
	</g>
</g>
<g id="arrow">
	<g>
		<g>
			<path class="st0" d="M8.5,17.3c-0.2,0-0.4-0.2-0.4-0.4V5.4C8.1,5.2,8.3,5,8.5,5s0.4,0.2,0.4,0.4v11.5C8.9,17.2,8.7,17.3,8.5,17.3
				z"/>
		</g>
		<g>
			<g>
				<polygon class="st0" points="5.3,14.3 5.8,13.8 8.5,16.6 11.1,13.8 11.7,14.3 8.5,17.8 				"/>
			</g>
		</g>
	</g>
</g>
</svg>
