<?xml version="1.0" encoding="utf-8"?>
<!-- Generator: Adobe Illustrator 23.0.3, SVG Export Plug-In . SVG Version: 6.00 Build 0)  -->
<svg version="1.1" id="圖層_1" xmlns="http://www.w3.org/2000/svg" xmlns:xlink="http://www.w3.org/1999/xlink" x="0px" y="0px"
	 viewBox="0 0 69 69" style="enable-background:new 0 0 69 69;" xml:space="preserve">
<style type="text/css">
	.st0{fill:#3482C5;}
</style>
<g>
	<g id="XMLID_14_">
		<path class="st0" d="M34.5,0C15.5,0,0,15.5,0,34.5S15.5,69,34.5,69C53.6,69,69,53.5,69,34.5S53.5,0,34.5,0z M47.8,41.4
			c-0.4,0.4-1,0.4-1.4,0L34.5,29.5L22.6,41.4c-0.3,0.3-0.5,0.4-0.8,0.4s-0.5-0.1-0.7-0.3c-0.4-0.4-0.4-1,0-1.4l12.7-12.7
			c0.4-0.4,1-0.4,1.4,0L47.8,40C48.2,40.4,48.2,41,47.8,41.4z"/>
	</g>
</g>
</svg>
