<?xml version="1.0" encoding="utf-8"?>
<!-- Generator: Adobe Illustrator 23.0.3, SVG Export Plug-In . SVG Version: 6.00 Build 0)  -->
<svg version="1.1" id="圖層_1" xmlns="http://www.w3.org/2000/svg" xmlns:xlink="http://www.w3.org/1999/xlink" x="0px" y="0px"
	 viewBox="0 0 274.9 61.8" style="enable-background:new 0 0 274.9 61.8;" xml:space="preserve">
<style type="text/css">
	.st0{fill:#FFFFFF;}
</style>
<g id="XMLID_16_">
	<g id="XMLID_1821_">
		<polygon id="XMLID_1835_" class="st0" points="36.9,24.9 0,0 0,11 0,12.5 0,54.9 8.9,61.8 8.9,18.8 36.9,37.3 		"/>
		<polygon id="XMLID_1834_" class="st0" points="38.6,24.9 75.5,0 75.5,11 75.5,12.5 75.5,54.9 66.8,61.8 66.8,18.8 38.6,37.3 		"/>
		<polygon id="XMLID_1824_" class="st0" points="62.5,54.1 40.1,38.6 47.5,33.5 62.5,43.4 		"/>
		<polygon id="XMLID_1823_" class="st0" points="10.5,56.8 36.2,38.6 28.7,33.5 12.4,44.6 12.4,22.7 10.5,21.4 		"/>
		<polygon id="XMLID_1822_" class="st0" points="38,41.7 10.5,60.8 10.5,58.9 38,39.5 63.7,57.1 63.7,22.7 65.4,21.4 65.4,60.6 		
			"/>
	</g>
	<g id="XMLID_1694_">
		<g>
			<path id="XMLID_326_" class="st0" d="M93.6,51.3L90.7,43h1.6l2.1,6.7l0,0l2.1-6.7h1.6l-2.9,8.3H93.6z"/>
			<path id="XMLID_324_" class="st0" d="M100.3,51.3v-8.4h5.3v1.3h-3.8v2.5h3.5v1.2h-3.5v3.4H100.3z"/>
			<path id="XMLID_322_" class="st0" d="M110.1,47.1L110.1,47.1l-2.7-4.2h1.8l1.9,3.1l0,0l2-3.1h1.7l-2.8,4.2l0,0l2.7,4.1H113
				l-2-3.1l0,0l-2,3.1h-1.6L110.1,47.1z"/>
			<path id="XMLID_319_" class="st0" d="M133.2,49.1h-3.1l-0.7,2.2h-1.5l3-8.3h1.7l3,8.3H134L133.2,49.1z M130.5,47.9h2.4l-1.2-3.6
				l0,0L130.5,47.9z"/>
			<path id="XMLID_317_" class="st0" d="M137.5,51.3v-8.4h1.3l4.1,5.8h0.1v-5.8h1.4v8.3h-1.3l-4.1-5.9h-0.1v5.9h-1.4V51.3z"/>
			<path id="XMLID_315_" class="st0" d="M147.1,51.3v-8.4h1.5v8.3h-1.5V51.3z"/>
			<path id="XMLID_313_" class="st0" d="M159.9,51.3h-1.3v-5.9l0,0l-2.4,5.9h-1l-2.4-5.9l0,0v5.9h-1.3v-8.4h1.7l2.6,6.3l0,0l2.6-6.3
				h1.7v8.4H159.9z"/>
			<path id="XMLID_310_" class="st0" d="M167.2,49.1h-3.1l-0.7,2.2h-1.5l3-8.3h1.7l3,8.3H168L167.2,49.1z M164.5,47.9h2.4l-1.2-3.6
				l0,0L164.5,47.9z"/>
			<path id="XMLID_308_" class="st0" d="M172.5,51.3v-7.1H170v-1.3h6.6v1.3h-2.5v7.1H172.5z"/>
			<path id="XMLID_306_" class="st0" d="M178.7,51.3v-8.4h1.5v8.3h-1.5V51.3z"/>
			<path id="XMLID_303_" class="st0" d="M190.5,47.1c0,2.7-1.5,4.3-4,4.3c-2.4,0-4-1.7-4-4.3s1.5-4.3,4-4.3
				C189,42.8,190.5,44.4,190.5,47.1z M184.1,47.1c0,1.9,0.9,3,2.4,3s2.4-1.2,2.4-3c0-1.9-0.9-3-2.4-3
				C185.1,44,184.1,45.2,184.1,47.1z"/>
			<path id="XMLID_301_" class="st0" d="M192.9,51.3v-8.4h1.3l4.1,5.8h0.1v-5.8h1.4v8.3h-1.3l-4.1-5.9h-0.1v5.9h-1.4V51.3z"/>
			<path id="XMLID_299_" class="st0" d="M219.2,51.3h-5.3v-8.4h1.5V50h3.8V51.3z"/>
			<path id="XMLID_296_" class="st0" d="M226.2,49.1h-3.1l-0.7,2.2h-1.5l3-8.3h1.7l3,8.3H227L226.2,49.1z M223.5,47.9h2.4l-1.2-3.6
				l0,0L223.5,47.9z"/>
			<path id="XMLID_292_" class="st0" d="M230.5,51.3v-8.4h3.5c1.5,0,2.5,0.8,2.5,2.1c0,0.9-0.7,1.7-1.5,1.8l0,0
				c1.1,0.1,1.9,0.9,1.9,2c0,1.5-1.1,2.4-2.9,2.4h-3.5V51.3z M232,46.4h1.4c1,0,1.6-0.4,1.6-1.2c0-0.7-0.5-1.1-1.4-1.1h-1.7v2.3
				L232,46.4L232,46.4z M233.8,50.1c1.1,0,1.7-0.5,1.7-1.3s-0.6-1.3-1.7-1.3h-1.7v2.6L233.8,50.1L233.8,50.1z"/>
		</g>
	</g>
	<g id="XMLID_1652_">
		<rect id="XMLID_1669_" x="120.9" y="43.6" class="st0" width="1" height="6.7"/>
	</g>
	<g id="XMLID_1541_">
		<rect id="XMLID_1651_" x="206.3" y="43.6" class="st0" width="1" height="6.7"/>
	</g>
	<g id="XMLID_1188_">
		<polygon id="XMLID_1193_" class="st0" points="36.9,24.9 0,0 0,11 0,12.5 0,54.9 8.9,61.8 8.9,18.8 36.9,37.3 		"/>
		<polygon id="XMLID_1192_" class="st0" points="38.6,24.9 75.5,0 75.5,11 75.5,12.5 75.5,54.9 66.8,61.8 66.8,18.8 38.6,37.3 		"/>
		<polygon id="XMLID_1191_" class="st0" points="62.5,54.1 40.1,38.6 47.5,33.5 62.5,43.4 		"/>
		<polygon id="XMLID_1190_" class="st0" points="10.5,56.8 36.2,38.6 28.7,33.5 12.4,44.6 12.4,22.7 10.5,21.4 		"/>
		<polygon id="XMLID_1189_" class="st0" points="38,41.7 10.5,60.8 10.5,58.9 38,39.5 63.7,57.1 63.7,22.7 65.4,21.4 65.4,60.6 		
			"/>
	</g>
	<g id="XMLID_15_">
		<g>
			<path id="XMLID_290_" class="st0" d="M93.6,51.3L90.7,43h1.6l2.1,6.7l0,0l2.1-6.7h1.6l-2.9,8.3H93.6z"/>
			<path id="XMLID_288_" class="st0" d="M100.3,51.3v-8.4h5.3v1.3h-3.8v2.5h3.5v1.2h-3.5v3.4H100.3z"/>
			<path id="XMLID_286_" class="st0" d="M110.1,47.1L110.1,47.1l-2.7-4.2h1.8l1.9,3.1l0,0l2-3.1h1.7l-2.8,4.2l0,0l2.7,4.1H113
				l-2-3.1l0,0l-2,3.1h-1.6L110.1,47.1z"/>
			<path id="XMLID_283_" class="st0" d="M133.2,49.1h-3.1l-0.7,2.2h-1.5l3-8.3h1.7l3,8.3H134L133.2,49.1z M130.5,47.9h2.4l-1.2-3.6
				l0,0L130.5,47.9z"/>
			<path id="XMLID_281_" class="st0" d="M137.5,51.3v-8.4h1.3l4.1,5.8h0.1v-5.8h1.4v8.3h-1.3l-4.1-5.9h-0.1v5.9h-1.4V51.3z"/>
			<path id="XMLID_279_" class="st0" d="M147.1,51.3v-8.4h1.5v8.3h-1.5V51.3z"/>
			<path id="XMLID_277_" class="st0" d="M159.9,51.3h-1.3v-5.9l0,0l-2.4,5.9h-1l-2.4-5.9l0,0v5.9h-1.3v-8.4h1.7l2.6,6.3l0,0l2.6-6.3
				h1.7v8.4H159.9z"/>
			<path id="XMLID_274_" class="st0" d="M167.2,49.1h-3.1l-0.7,2.2h-1.5l3-8.3h1.7l3,8.3H168L167.2,49.1z M164.5,47.9h2.4l-1.2-3.6
				l0,0L164.5,47.9z"/>
			<path id="XMLID_272_" class="st0" d="M172.5,51.3v-7.1H170v-1.3h6.6v1.3h-2.5v7.1H172.5z"/>
			<path id="XMLID_270_" class="st0" d="M178.7,51.3v-8.4h1.5v8.3h-1.5V51.3z"/>
			<path id="XMLID_267_" class="st0" d="M190.5,47.1c0,2.7-1.5,4.3-4,4.3c-2.4,0-4-1.7-4-4.3s1.5-4.3,4-4.3
				C189,42.8,190.5,44.4,190.5,47.1z M184.1,47.1c0,1.9,0.9,3,2.4,3s2.4-1.2,2.4-3c0-1.9-0.9-3-2.4-3
				C185.1,44,184.1,45.2,184.1,47.1z"/>
			<path id="XMLID_265_" class="st0" d="M192.9,51.3v-8.4h1.3l4.1,5.8h0.1v-5.8h1.4v8.3h-1.3l-4.1-5.9h-0.1v5.9h-1.4V51.3z"/>
			<path id="XMLID_263_" class="st0" d="M219.2,51.3h-5.3v-8.4h1.5V50h3.8V51.3z"/>
			<path id="XMLID_260_" class="st0" d="M226.2,49.1h-3.1l-0.7,2.2h-1.5l3-8.3h1.7l3,8.3H227L226.2,49.1z M223.5,47.9h2.4l-1.2-3.6
				l0,0L223.5,47.9z"/>
			<path id="XMLID_256_" class="st0" d="M230.5,51.3v-8.4h3.5c1.5,0,2.5,0.8,2.5,2.1c0,0.9-0.7,1.7-1.5,1.8l0,0
				c1.1,0.1,1.9,0.9,1.9,2c0,1.5-1.1,2.4-2.9,2.4h-3.5V51.3z M232,46.4h1.4c1,0,1.6-0.4,1.6-1.2c0-0.7-0.5-1.1-1.4-1.1h-1.7v2.3
				L232,46.4L232,46.4z M233.8,50.1c1.1,0,1.7-0.5,1.7-1.3s-0.6-1.3-1.7-1.3h-1.7v2.6L233.8,50.1L233.8,50.1z"/>
		</g>
	</g>
	<g id="XMLID_1180_">
		<rect id="XMLID_1181_" x="120.9" y="43.6" class="st0" width="1" height="6.7"/>
	</g>
	<g id="XMLID_1178_">
		<rect id="XMLID_1179_" x="206.3" y="43.6" class="st0" width="1" height="6.7"/>
	</g>
	<polygon id="XMLID_1543_" class="st0" points="90.3,12.2 90.3,32.5 93.3,32.5 93.3,19.2 100.3,26.2 107.3,19.2 107.3,32.5 
		110.3,32.5 110.3,12.2 100.3,22.1 	"/>
	<path id="XMLID_1546_" class="st0" d="M123.8,12.5c-5.5,0-10,4.5-10,10s4.5,10,10,10s10-4.5,10-10S129.3,12.5,123.8,12.5z
		 M130.9,22.5c0,3.9-3.2,7-7,7s-7-3.2-7-7c0-3.9,3.2-7,7-7S130.9,18.6,130.9,22.5z"/>
	<path id="XMLID_1549_" class="st0" d="M146.2,12.4c-5.5,0-10,4.5-10,10s4.5,10,10,10s10-4.5,10-10
		C156.1,16.9,151.7,12.4,146.2,12.4z M153.2,22.4c0,3.9-3.2,7-7,7s-7-3.2-7-7c0-3.9,3.2-7,7-7S153.2,18.5,153.2,22.4z"/>
	<rect id="XMLID_1550_" x="226.4" y="12.5" class="st0" width="2.5" height="19.9"/>
	<polygon id="XMLID_1551_" class="st0" points="218.4,20.8 206.2,20.8 206.2,12.5 203.3,12.5 203.3,32.5 206.2,32.5 206.2,23.7 
		217.4,23.7 218.4,21.9 218.4,32.5 221.3,32.5 221.3,12.5 218.4,12.5 	"/>
	<polygon id="XMLID_1552_" class="st0" points="174.9,26.1 159.9,12.2 159.9,32.5 162.8,32.5 162.7,18.9 177.8,32.8 177.8,12.5 
		174.9,12.5 	"/>
	<polygon id="XMLID_1553_" class="st0" points="249.2,26.1 234.1,12.2 234.1,32.5 237,32.5 237,18.9 252.1,32.8 252.1,12.5 
		249.2,12.5 	"/>
	<g id="XMLID_914_">
		<polygon id="XMLID_1554_" class="st0" points="271.1,23.7 272.6,20.8 262.1,20.8 260.7,23.7 		"/>
		<polygon id="XMLID_1555_" class="st0" points="259.7,15.4 273.5,15.4 275,12.5 256.8,12.5 256.8,32.4 273.5,32.4 274.9,29.5 
			259.7,29.5 		"/>
	</g>
	<path id="XMLID_1556_" class="st0" d="M187.7,15.4h11.1l1.5-2.9h-12.6c-3.1,0-5.6,2.5-5.6,5.6s2.5,5.6,5.6,5.6h6.6
		c1.6,0,2.9,1.3,2.9,2.9s-1.3,2.9-2.9,2.9h-10.9l-1.4,2.9h12.3c3.2,0,5.8-2.6,5.8-5.8c0-3.2-2.6-5.8-5.8-5.8h-6.6
		c-1.5,0-2.7-1.2-2.7-2.7C185,16.6,186.2,15.4,187.7,15.4z"/>
</g>
</svg>
