<?xml version="1.0" encoding="utf-8"?>
<!-- Generator: Adobe Illustrator 19.0.0, SVG Export Plug-In . SVG Version: 6.00 Build 0)  -->
<svg version="1.1" id="圖層_1" xmlns="http://www.w3.org/2000/svg" xmlns:xlink="http://www.w3.org/1999/xlink" x="0px" y="0px"
	 viewBox="0 343 595.3 155.9" style="enable-background:new 0 343 595.3 155.9;" xml:space="preserve">
<style type="text/css">
	.st0{fill:#3482C5;}
</style>
<g>
	<g id="XMLID_14_">
		<path class="st0" d="M303.5,380.2c-19,0-34.5,15.5-34.5,34.5s15.5,34.5,34.5,34.5c19.1,0,34.5-15.5,34.5-34.5
			S322.5,380.2,303.5,380.2z M316.8,421.6c-0.4,0.4-1,0.4-1.4,0l-11.9-11.9l-11.9,11.9c-0.3,0.3-0.5,0.4-0.8,0.4s-0.5-0.1-0.7-0.3
			c-0.4-0.4-0.4-1,0-1.4l12.7-12.7c0.4-0.4,1-0.4,1.4,0l12.6,12.6C317.2,420.6,317.2,421.2,316.8,421.6z"/>
	</g>
</g>
</svg>
